<?xml version="1.0" encoding="utf-8"?>
<!-- Generator: Adobe Illustrator 18.0.0, SVG Export Plug-In . SVG Version: 6.00 Build 0)  -->
<!DOCTYPE svg PUBLIC "-//W3C//DTD SVG 1.1//EN" "http://www.w3.org/Graphics/SVG/1.1/DTD/svg11.dtd">
<svg version="1.1" id="Icon_Set" xmlns="http://www.w3.org/2000/svg" xmlns:xlink="http://www.w3.org/1999/xlink" x="0px" y="0px"
	 viewBox="0 0 512 512" style="enable-background:new 0 0 512 512;" xml:space="preserve">
<style type="text/css">
	.st0{fill:#4C4372;}
	.st1{fill:#F0C48A;}
	.st2{fill:#FD919E;}
	.st3{fill:#E8677D;}
	.st4{fill:#D3E6F8;}
	.st5{fill:#A4CFF2;}
	.st6{fill:#7BABF1;}
	.st7{fill:#FFFFFF;}
</style>
<g>
	<g>
		<g>
			<g>
				<circle class="st1" cx="256" cy="256" r="207"/>
			</g>
		</g>
	</g>
	<g>
		<g>
			<g>
				<rect x="57.069" y="151.372" class="st2" width="144.907" height="144.907"/>
			</g>
		</g>
		<g>
			<g>
				<rect x="169.919" y="151.372" class="st3" width="32.058" height="144.907"/>
			</g>
		</g>
		<g>
			<g>
				<rect x="267.993" y="319.2" class="st4" width="186.938" height="186.937"/>
			</g>
		</g>
		<g>
			<g>
				<rect x="416.017" y="319.2" class="st5" width="38.914" height="186.937"/>
			</g>
		</g>
		<g>
			<g>
				<path class="st0" d="M201.977,302.141H57.069c-3.237,0-5.862-2.625-5.862-5.862V151.372c0-3.238,2.625-5.863,5.862-5.863
					h144.907c3.237,0,5.862,2.625,5.862,5.863v144.907C207.839,299.516,205.214,302.141,201.977,302.141z M62.932,290.416h133.182
					V157.235H62.932V290.416z"/>
			</g>
		</g>
		<g>
			<g>
				<path class="st0" d="M454.931,512H267.993c-3.237,0-5.862-2.625-5.862-5.863V319.2c0-3.237,2.625-5.862,5.862-5.862h186.938
					c3.237,0,5.862,2.625,5.862,5.862v186.937C460.793,509.375,458.168,512,454.931,512z M273.855,500.275h175.213V325.064H273.855
					V500.275z"/>
			</g>
		</g>
		<g>
			<g>
				<path class="st0" d="M81.892,156.258c-3.237,0-5.862-2.625-5.862-5.863V94.819c0-3.238,2.625-5.863,5.862-5.863
					c3.237,0,5.862,2.625,5.862,5.863v55.576C87.754,153.633,85.129,156.258,81.892,156.258z"/>
			</g>
		</g>
		<g>
			<g>
				<path class="st0" d="M177.154,156.258c-3.238,0-5.863-2.625-5.863-5.863v-27.788c0-3.238,2.625-5.863,5.863-5.863
					c3.237,0,5.862,2.625,5.862,5.863v27.788C183.017,153.633,180.392,156.258,177.154,156.258z"/>
			</g>
		</g>
		<g>
			<g>
				<path class="st0" d="M81.892,72.836c-3.237,0-5.862-2.625-5.862-5.863V24.915c0-3.237,2.625-5.862,5.862-5.862
					c3.237,0,5.862,2.625,5.862,5.862v42.058C87.754,70.211,85.129,72.836,81.892,72.836z"/>
			</g>
		</g>
		<g>
			<g>
				<path class="st0" d="M130.392,156.258c-3.237,0-5.862-2.625-5.862-5.863V5.863c0-3.238,2.625-5.863,5.862-5.863
					s5.862,2.625,5.862,5.863v144.532C136.254,153.633,133.629,156.258,130.392,156.258z"/>
			</g>
		</g>
		<g>
			<g>
				<path class="st0" d="M177.154,100.681c-3.238,0-5.863-2.625-5.863-5.862V53.741c0-3.238,2.625-5.863,5.863-5.863
					c3.237,0,5.862,2.625,5.862,5.863v41.078C183.017,98.056,180.392,100.681,177.154,100.681z"/>
			</g>
		</g>
		<g>
			<g>
				<path class="st0" d="M302.485,324.264c-3.237,0-5.862-2.625-5.862-5.862v-76.358c0-3.238,2.625-5.863,5.862-5.863
					c3.237,0,5.862,2.625,5.862,5.863v76.358C308.348,321.639,305.723,324.264,302.485,324.264z"/>
			</g>
		</g>
		<g>
			<g>
				<path class="st0" d="M302.485,208.335c-3.237,0-5.862-2.625-5.862-5.863v-38.105c0-3.237,2.625-5.862,5.862-5.862
					c3.237,0,5.862,2.625,5.862,5.862v38.105C308.348,205.71,305.723,208.335,302.485,208.335z"/>
			</g>
		</g>
		<g>
			<g>
				<path class="st0" d="M365.885,324.264c-3.237,0-5.862-2.625-5.862-5.862V135.701c0-3.237,2.625-5.862,5.862-5.862
					s5.862,2.625,5.862,5.862v182.701C371.747,321.639,369.122,324.264,365.885,324.264z"/>
			</g>
		</g>
		<g>
			<g>
				<path class="st0" d="M420.44,324.264c-3.238,0-5.863-2.625-5.863-5.862V217.128c0-3.238,2.625-5.863,5.863-5.863
					c3.237,0,5.862,2.625,5.862,5.863v101.274C426.302,321.639,423.677,324.264,420.44,324.264z"/>
			</g>
		</g>
		<g>
			<g>
				<path class="st0" d="M420.44,189.282c-3.238,0-5.863-2.625-5.863-5.862v-28.984c0-3.237,2.625-5.862,5.863-5.862
					c3.237,0,5.862,2.625,5.862,5.862v28.984C426.302,186.657,423.677,189.282,420.44,189.282z"/>
			</g>
		</g>
	</g>
</g>
</svg>
